<svg width="390" height="80" viewBox="0 0 390 80" fill="none" xmlns="http://www.w3.org/2000/svg">
<g filter="url(#filter0_b_59_167049)">
<rect x="2.16667" y="1.66667" width="76.6667" height="76.6667" rx="18.3333" stroke="#E6324D" stroke-width="3.33333"/>
<path d="M53.8346 27.2315V18.4963C53.8346 17.265 52.8946 16.4752 51.7799 16.7075L40.545 19.3094C39.1461 19.6347 38.3811 20.4478 38.3811 21.7488L38.4248 47.5825C38.534 48.7209 38.0313 49.4643 37.0696 49.6734L33.5942 50.4399C29.2226 51.4157 27.168 53.7854 27.168 57.2933C27.168 60.8477 29.7472 63.3337 33.3756 63.3337C36.5887 63.3337 41.3974 60.8246 41.3974 54.0642V32.8071C41.3974 31.5758 41.616 31.3202 42.6433 31.0879L52.6325 28.7648C53.3756 28.6021 53.8346 27.9981 53.8346 27.2315Z" fill="#E6324D"/>
</g>
<path d="M100.656 63V17.9062H116.562C129.938 17.9062 137.906 26.125 137.906 40.3125V40.375C137.906 54.625 130 63 116.562 63H100.656ZM107.656 56.9375H115.906C125.469 56.9375 130.75 51.0938 130.75 40.4375V40.375C130.75 29.7812 125.406 23.9375 115.906 23.9375H107.656V56.9375ZM143.781 63V30.125H150.531V35.75H150.688C151.75 31.9062 154.5 29.5 158.25 29.5C159.219 29.5 160.062 29.6562 160.594 29.75V36.0312C160.062 35.8125 158.875 35.6562 157.562 35.6562C153.219 35.6562 150.531 38.5 150.531 43.4062V63H143.781ZM177.469 63.6562C168.031 63.6562 161.875 57.125 161.875 46.5625V46.5C161.875 36 168.094 29.5 177.438 29.5C186.812 29.5 193.062 35.9688 193.062 46.5V46.5625C193.062 57.1562 186.875 63.6562 177.469 63.6562ZM177.5 58C182.781 58 186.156 53.8125 186.156 46.5625V46.5C186.156 39.3125 182.719 35.1562 177.438 35.1562C172.25 35.1562 168.781 39.3125 168.781 46.5V46.5625C168.781 53.8438 172.219 58 177.5 58ZM198.281 73.9375V30.125H205.031V35.7812H205.188C207.156 31.875 210.781 29.5 215.469 29.5C223.844 29.5 229.219 36.0625 229.219 46.5625V46.5938C229.219 57.0625 223.812 63.6562 215.562 63.6562C210.906 63.6562 207.125 61.2812 205.188 57.4688H205.031V73.9375H198.281ZM213.719 57.8438C219.031 57.8438 222.344 53.5312 222.344 46.5938V46.5625C222.344 39.5625 219 35.2812 213.719 35.2812C208.594 35.2812 205 39.7188 205 46.5625V46.5938C205 53.4062 208.625 57.8438 213.719 57.8438ZM235.281 63V17.9062H253.281C261.281 17.9062 266.531 22.375 266.531 29.1875V29.25C266.531 34 262.938 38.4062 258.188 39.0938V39.2188C264.594 39.875 268.75 44.2812 268.75 50.2188V50.2812C268.75 58.1875 262.969 63 253.375 63H235.281ZM251.594 23.625H242.281V37.125H250.031C256.219 37.125 259.562 34.625 259.562 30.0938V30.0312C259.562 25.9062 256.656 23.625 251.594 23.625ZM251.469 42.5312H242.281V57.2812H251.938C258.219 57.2812 261.594 54.75 261.594 49.9375V49.875C261.594 45.0312 258.156 42.5312 251.469 42.5312ZM288 63.6562C278.344 63.6562 272.5 57.0625 272.5 46.6875V46.6562C272.5 36.375 278.438 29.5 287.656 29.5C296.875 29.5 302.531 36.125 302.531 46V48.2812H279.25C279.375 54.5 282.781 58.125 288.156 58.125C292.156 58.125 294.812 56.0625 295.656 53.5938L295.75 53.3438H302.156L302.094 53.6875C301.031 58.9062 295.969 63.6562 288 63.6562ZM287.688 35.0312C283.312 35.0312 279.938 38 279.344 43.5H295.844C295.281 37.8125 292.094 35.0312 287.688 35.0312ZM317.438 63.5938C310.875 63.5938 306.469 59.5625 306.469 53.6562V53.5938C306.469 47.875 310.906 44.375 318.688 43.9062L327.625 43.375V40.9062C327.625 37.2812 325.281 35.0938 321.094 35.0938C317.188 35.0938 314.781 36.9375 314.219 39.5625L314.156 39.8438H307.781L307.812 39.5C308.281 33.8438 313.188 29.5 321.281 29.5C329.312 29.5 334.406 33.75 334.406 40.3438V63H327.625V57.8125H327.5C325.594 61.3438 321.781 63.5938 317.438 63.5938ZM313.281 53.5C313.281 56.375 315.656 58.1875 319.281 58.1875C324.031 58.1875 327.625 54.9688 327.625 50.6875V48.125L319.594 48.625C315.531 48.875 313.281 50.6562 313.281 53.4375V53.5ZM352.5 63.6562C346 63.6562 342.875 60.9062 342.875 54.3438V35.5H338.156V30.125H342.875V21.5625H349.781V30.125H355.938V35.5H349.781V53.9375C349.781 57.2812 351.281 58.2812 354.125 58.2812C354.844 58.2812 355.438 58.2188 355.938 58.1562V63.375C355.156 63.5 353.875 63.6562 352.5 63.6562ZM373.844 63.6562C365.625 63.6562 360.812 59.5938 360.125 53.5938L360.094 53.3125H366.781L366.844 53.625C367.469 56.6562 369.719 58.4375 373.875 58.4375C377.938 58.4375 380.375 56.75 380.375 54.0938V54.0625C380.375 51.9375 379.188 50.7188 375.656 49.875L370.281 48.6562C364.031 47.2188 360.938 44.2188 360.938 39.4375V39.4062C360.938 33.5312 366.062 29.5 373.625 29.5C381.406 29.5 386.094 33.8438 386.438 39.4375L386.469 39.8125H380.125L380.094 39.5938C379.688 36.7188 377.438 34.7188 373.625 34.7188C370 34.7188 367.719 36.4375 367.719 39.0625V39.0938C367.719 41.125 369.062 42.5 372.594 43.3438L377.938 44.5625C384.656 46.125 387.219 48.7812 387.219 53.5V53.5312C387.219 59.5312 381.594 63.6562 373.844 63.6562Z" fill="#E6324D"/>
<defs>
<filter id="filter0_b_59_167049" x="-26.1667" y="-26.6667" width="133.333" height="133.333" filterUnits="userSpaceOnUse" color-interpolation-filters="sRGB">
<feFlood flood-opacity="0" result="BackgroundImageFix"/>
<feGaussianBlur in="BackgroundImageFix" stdDeviation="13.3333"/>
<feComposite in2="SourceAlpha" operator="in" result="effect1_backgroundBlur_59_167049"/>
<feBlend mode="normal" in="SourceGraphic" in2="effect1_backgroundBlur_59_167049" result="shape"/>
</filter>
</defs>
</svg>
