<svg width="148" height="250" viewBox="0 0 148 250" fill="none" xmlns="http://www.w3.org/2000/svg">
<path d="M148 56.5954V9.79999C148 3.20388 142.783 -1.02761 136.596 0.216942L74.2424 14.156C66.4785 15.8984 62.2326 20.2544 62.2326 27.2238L62.4753 165.619C63.0817 171.717 60.2917 175.7 54.954 176.82L35.6654 180.926C11.4032 186.154 0 198.848 0 217.641C0 236.682 14.3147 250 34.4524 250C52.285 250 78.9735 236.559 78.9735 200.342L78.9735 86.4648C78.9735 79.8686 80.1867 78.4996 85.8882 77.255L141.328 64.8094C145.452 63.9382 148 60.7024 148 56.5954Z" fill="#E6324D"/>
</svg>
